<svg xmlns="http://www.w3.org/2000/svg" viewBox="0 0 100 100" fill="none">
  <!-- House outline -->
  <path d="M30 85 L30 45 L50 25 L70 45 L70 85 Z" stroke="#CC8800" stroke-width="4" fill="none" stroke-linejoin="round"/>
  <!-- Right wall extension -->
  <path d="M70 45 L80 45 L80 85 L70 85" stroke="#CC8800" stroke-width="4" fill="none" stroke-linejoin="round"/>
  <!-- Neural network nodes and connections -->
  <circle cx="42" cy="55" r="3" fill="#CC8800"/>
  <circle cx="58" cy="55" r="3" fill="#CC8800"/>
  <circle cx="50" cy="68" r="3" fill="#CC8800"/>
  <circle cx="38" cy="72" r="3" fill="#CC8800"/>
  <circle cx="62" cy="72" r="3" fill="#CC8800"/>
  <circle cx="50" cy="42" r="3" fill="#CC8800"/>
  <circle cx="65" cy="62" r="3" fill="#CC8800"/>
  <!-- Network lines -->
  <line x1="42" y1="55" x2="58" y2="55" stroke="#CC8800" stroke-width="1.5" opacity="0.7"/>
  <line x1="42" y1="55" x2="50" y2="68" stroke="#CC8800" stroke-width="1.5" opacity="0.7"/>
  <line x1="58" y1="55" x2="50" y2="68" stroke="#CC8800" stroke-width="1.5" opacity="0.7"/>
  <line x1="50" y1="68" x2="38" y2="72" stroke="#CC8800" stroke-width="1.5" opacity="0.7"/>
  <line x1="50" y1="68" x2="62" y2="72" stroke="#CC8800" stroke-width="1.5" opacity="0.7"/>
  <line x1="42" y1="55" x2="50" y2="42" stroke="#CC8800" stroke-width="1.5" opacity="0.7"/>
  <line x1="58" y1="55" x2="50" y2="42" stroke="#CC8800" stroke-width="1.5" opacity="0.7"/>
  <line x1="58" y1="55" x2="65" y2="62" stroke="#CC8800" stroke-width="1.5" opacity="0.7"/>
  <line x1="65" y1="62" x2="62" y2="72" stroke="#CC8800" stroke-width="1.5" opacity="0.7"/>
  <line x1="38" y1="72" x2="42" y2="55" stroke="#CC8800" stroke-width="1.5" opacity="0.7"/>
  <!-- Upward arrow -->
  <line x1="35" y1="70" x2="72" y2="28" stroke="#CC8800" stroke-width="4.5" stroke-linecap="round"/>
  <path d="M65 22 L75 26 L72 36" stroke="#CC8800" stroke-width="4" fill="none" stroke-linecap="round" stroke-linejoin="round"/>
</svg>
